# xmcd
#
# Track frame offsets:
#	150
#	23880
#	36417
#	49238
#	63661
#	82822
#	95158
#	108688
#	123573
#	143735
#	157628
#	172540
#	192693
#	208178
#	218500
#
# Disc length: 3239 seconds
# Revision: 0
# Processed by: cddbd v1.5.2PL0 Copyright (c) Steve Scherf et al.
# Submitted via: dBpowerAMP V12.0
#
DISCID=d30ca50f
DTITLE=Various Artist - The Blues [CD2 of 2)
DYEAR=1969
DGENRE=Blues
TTITLE0=Johnny Winter - Be Careful With A Fool
TTITLE1=Blind Lemon Jefferson - Prison Cell Blues
TTITLE2=John Lee Hooker - Hobo Blues
TTITLE3=Bessie Smith - St. Louis Blues
TTITLE4=Taj Mahal - The Cuckoo
TTITLE5=Ma Rainey - Deep Moanin' Blues
TTITLE6=Robert Johnson - Terraplane Blues
TTITLE7=Mike Bloomfield - That's All Right
TTITLE8=Janis Joplin - Ball And Chain
TTITLE9=Lightnin' Hopkins - War Is Starting Again
TTITLE10=Steamhammer - Junior's Wailing
TTITLE11=Son House - Pearline
TTITLE12=Big Maybelle - No More Trouble Out Of Me
TTITLE13=Driftin Slim and His Blues Band - Jackson Blues
TTITLE14=Blood, Sweat And Tears - Blues Part Ii
EXTD=
EXTT0=
EXTT1=
EXTT2=
EXTT3=
EXTT4=
EXTT5=
EXTT6=
EXTT7=
EXTT8=
EXTT9=
EXTT10=
EXTT11=
EXTT12=
EXTT13=
EXTT14=
PLAYORDER=
